HIERARCHY
ROOT hip
{
	OFFSET 0.000000 0.000000 0.000000 
	CHANNELS 6 Xposition Yposition Zposition Xrotation Zrotation Yrotation
	JOINT abdomen
	{
		OFFSET 0.000000 3.402643 0.000000 
		CHANNELS 3 Xrotation Zrotation Yrotation
		JOINT chest
		{
			OFFSET 0.000000 8.438565 -0.680529 
			CHANNELS 3 Xrotation Zrotation Yrotation
			JOINT neck
			{
				OFFSET 0.000000 10.207942 -0.272212 
				CHANNELS 3 Xrotation Zrotation Yrotation
				JOINT head
				{
					OFFSET 0.000000 3.130431 0.000000 
					CHANNELS 3 Xrotation Zrotation Yrotation
					End Site
					{
						OFFSET 0.000000 3.130435 0.000000 
					}
				}
			}
			JOINT lCollar
			{
				OFFSET 3.470700 6.669187 -0.816635 
				CHANNELS 3 Yrotation Zrotation Xrotation
				JOINT lShldr
				{
					OFFSET 3.198488 0.000000 0.000000 
					CHANNELS 3 Zrotation Yrotation Xrotation
					JOINT lForeArm
					{
						OFFSET 10.139888 0.000000 0.000000 
						CHANNELS 3 Yrotation Zrotation Xrotation
						JOINT lHand
						{
							OFFSET 8.370511 0.000000 0.000000 
							CHANNELS 3 Zrotation Yrotation Xrotation
							End Site
							{
								OFFSET 4.083176 0.000000 0.000000 
							}
						}
					}
				}
			}
			JOINT rCollar
			{
				OFFSET -3.470700 6.669187 -0.816635 
				CHANNELS 3 Yrotation Zrotation Xrotation
				JOINT rShldr
				{
					OFFSET -3.198488 0.000000 0.000000 
					CHANNELS 3 Zrotation Yrotation Xrotation
					JOINT rForeArm
					{
						OFFSET -10.139888 0.000000 0.000000 
						CHANNELS 3 Yrotation Zrotation Xrotation
						JOINT rHand
						{
							OFFSET -8.370511 0.000000 0.000000 
							CHANNELS 3 Zrotation Yrotation Xrotation
							End Site
							{
								OFFSET -4.083176 0.000000 0.000000 
							}
						}
					}
				}
			}
		}
	}
	JOINT lThigh
	{
		OFFSET 5.308129 -1.633274 1.361059 
		CHANNELS 3 Xrotation Zrotation Yrotation
		JOINT lShin
		{
			OFFSET -2.041588 -20.007561 0.000000 
			CHANNELS 3 Xrotation Zrotation Yrotation
			JOINT lFoot
			{
				OFFSET 0.000000 -19.190928 -1.224953 
				CHANNELS 3 Xrotation Yrotation Zrotation
				End Site
				{
					OFFSET 0.000000 -2.449906 4.627600 
				}
			}
		}
	}
	JOINT rThigh
	{
		OFFSET -5.308129 -1.633274 1.361059 
		CHANNELS 3 Xrotation Zrotation Yrotation
		JOINT rShin
		{
			OFFSET 2.041588 -20.007561 0.000000 
			CHANNELS 3 Xrotation Zrotation Yrotation
			JOINT rFoot
			{
				OFFSET 0.000000 -19.190928 -1.224953 
				CHANNELS 3 Xrotation Yrotation Zrotation
				End Site
				{
					OFFSET 0.000000 -2.449906 4.627600 
				}
			}
		}
	}
}
MOTION
Frames: 18
Frame Time: 0.033333
-0.078324 44.929497 -5.266530 -15.097723 -0.169714 -0.833121 0.000000 0.000000 0.000000 4.843766 0.145961 1.633488 6.648284 1.281704 0.411422 22.589304 -0.805474 -0.649944 -8.577743 8.412188 5.675878 -7.851890 -63.422699 -18.626854 -26.845961 -10.008918 27.446928 7.356570 -5.128041 -3.918243 9.068535 4.716518 4.681425 -14.162995 64.643463 -24.114685 18.034618 12.627054 36.496773 -3.882103 -2.543372 -3.518582 -6.053144 16.506931 7.341876 50.244438 4.355113 11.081198 -22.041700 4.182546 -21.297281 -8.748685 -18.335550 -8.916363 52.189430 -0.173286 5.628625 -25.791069 -2.378128 10.446115 
-0.072411 44.913139 -5.263496 -15.039154 -0.198054 -0.747568 0.000000 0.000000 0.000000 4.794993 0.311406 1.725394 6.581933 1.055864 0.452583 22.588932 -0.691761 -0.895045 -8.549188 8.211405 5.631219 -7.532287 -63.608406 -18.915379 -26.689480 -10.067052 27.106680 7.294661 -5.230030 -3.914630 9.060953 4.154805 4.652964 -13.559411 64.699127 -23.759039 17.890228 12.608660 35.861038 -4.545080 -3.143579 -3.511203 -6.209928 16.547754 7.261289 50.349613 4.403088 11.112644 -22.047909 4.208891 -21.337580 -8.807669 -18.365402 -8.979512 52.269230 -0.097246 5.628941 -25.813271 -2.385907 10.418497 
-0.080087 44.912132 -5.249566 -15.068451 -0.198027 -0.747467 0.000000 0.000000 0.000000 4.775462 0.311415 1.735053 6.638741 0.996399 0.471848 22.442465 -0.701681 -0.944441 -8.506873 8.206944 5.615767 -7.626237 -63.569611 -18.876919 -26.735226 -10.020200 27.213440 7.435435 -5.132581 -3.922374 9.169729 4.161883 4.636060 -13.385131 64.449333 -23.496281 18.180664 12.547481 36.060940 -4.165195 -2.991996 -3.508347 -6.142155 16.550938 7.286617 50.333916 4.420910 11.003839 -22.102222 4.226521 -21.317841 -8.778904 -18.367374 -8.992348 52.278912 -0.116749 5.620275 -25.832083 -2.388532 10.428499 
-0.091036 44.907852 -5.228664 -15.166077 -0.160234 -0.806177 0.000000 0.000000 0.000000 4.804750 0.291939 1.723807 6.761975 0.859488 0.533811 22.246611 -0.493485 -0.969467 -8.413909 8.015462 5.617086 -7.403653 -63.539692 -18.973392 -26.655693 -10.008796 27.397486 7.380724 -5.341756 -3.929433 9.278054 4.107823 4.665913 -13.299200 64.417168 -23.340643 18.171900 12.597090 35.876747 -4.244684 -2.967726 -3.512728 -5.986780 16.543207 7.335661 50.333363 4.390678 10.931615 -22.132408 4.227744 -21.317728 -8.700686 -18.386269 -8.970098 52.319843 -0.165750 5.541233 -25.848169 -2.402967 10.476725 
-0.083484 44.891621 -5.217350 -15.185596 -0.141370 -0.869832 0.000000 0.000000 0.000000 4.814504 0.262742 1.809284 6.687504 0.917149 0.533640 22.335009 -0.692517 -0.989634 -8.356381 8.197086 5.628541 -7.366107 -63.648052 -19.118946 -26.504137 -9.988458 27.450405 7.486364 -5.452174 -3.945281 9.278290 4.068794 4.675785 -13.220550 64.366623 -23.292408 18.221149 12.595840 35.816536 -4.235608 -2.957360 -3.512179 -5.956339 16.519569 7.379526 50.406990 4.373864 11.021349 -22.205183 4.230795 -21.353046 -8.728216 -18.399992 -8.917324 52.413406 -0.194702 5.638069 -25.928835 -2.408513 10.450908 
-0.079710 44.884445 -5.208705 -15.097703 -0.141428 -0.909112 0.000000 0.000000 0.000000 4.726609 0.253043 2.032684 6.627900 1.024909 0.568896 22.256596 -0.588361 -1.187929 -8.285892 8.643155 5.599081 -7.637689 -64.099068 -19.118752 -25.987432 -10.016620 27.405052 7.630429 -5.403419 -3.952992 9.135545 4.031962 4.613877 -12.764786 64.278610 -22.973383 18.410381 12.551345 35.339226 -4.165519 -3.138802 -3.509431 -6.013389 16.543961 7.443937 50.428787 4.352845 11.030441 -22.205276 4.258055 -21.370041 -8.825746 -18.409489 -8.888069 52.443684 -0.204607 5.605762 -25.956390 -2.419783 10.478381 
-0.077317 44.881172 -5.190545 -15.136765 -0.141402 -0.869953 0.000000 0.000000 0.000000 4.716850 0.272511 1.965891 6.643533 0.967155 0.557817 22.149078 -0.550652 -1.148374 -8.283938 8.663933 5.590920 -7.713458 -64.030769 -19.070381 -26.008854 -10.036797 27.325218 7.717707 -5.240990 -3.947433 9.069482 4.025363 4.604617 -12.857242 64.495506 -23.012253 18.128992 12.662139 34.787415 -4.542828 -3.329366 -3.502542 -5.994955 16.556435 7.386742 50.453331 4.344784 10.900867 -22.291697 4.240939 -21.316181 -8.759737 -18.417412 -8.915064 52.456207 -0.214682 5.524288 -25.970598 -2.404615 10.534376 
-0.074674 44.881046 -5.173067 -15.205104 -0.103661 -0.870263 0.000000 0.000000 0.000000 4.746168 0.321161 1.774766 6.620180 0.686212 0.575113 21.992640 -0.465510 -1.048381 -8.139541 8.131669 5.569198 -6.986334 -63.884159 -19.612389 -25.992165 -10.053162 27.501854 7.670790 -5.273487 -3.944873 9.177598 3.913794 4.631585 -13.353745 64.624718 -23.477043 17.901590 12.670842 35.015697 -4.390503 -3.123861 -3.512246 -5.896619 16.496338 7.422907 50.455105 4.361883 10.976888 -22.286533 4.242843 -21.347851 -8.670758 -18.423567 -8.854185 52.473572 -0.282701 5.541478 -26.037411 -2.428178 10.565351 
-0.056807 44.893501 -5.158581 -15.224618 -0.056537 -0.834222 0.000000 0.000000 0.000000 4.765696 0.311420 1.783828 6.512735 0.673508 0.620516 22.021742 -0.351465 -1.060469 -8.191694 8.147136 5.572740 -6.816448 -63.815796 -19.728941 -26.042965 -10.078635 27.289957 7.419837 -5.339155 -3.931498 9.147559 3.911302 4.634793 -13.501785 64.511330 -23.651768 18.075773 12.613615 35.486069 -3.876384 -3.090993 -3.512460 -5.849485 16.453003 7.406734 50.397125 4.334833 10.945167 -22.273300 4.236190 -21.306955 -8.592014 -18.499329 -8.910214 52.404739 -0.253533 5.571506 -26.008512 -2.422025 10.557509 
-0.046485 44.905834 -5.151748 -15.205087 -0.056543 -0.814710 0.000000 0.000000 0.000000 4.775466 0.321147 1.804227 6.406683 0.722036 0.621657 21.914293 -0.332615 -1.084607 -8.215301 8.272222 5.590135 -6.822238 -63.826866 -19.885082 -26.066439 -10.004640 27.449266 7.393804 -5.536634 -3.941067 9.028636 3.932173 4.649123 -13.742397 64.508606 -23.991629 18.141495 12.574575 35.412849 -3.694783 -2.883739 -3.510134 -5.819965 16.423120 7.398598 50.348885 4.315272 10.926644 -22.300161 4.234566 -21.264002 -8.542300 -18.516655 -8.973722 52.334427 -0.233723 5.635719 -26.009111 -2.428538 10.553247 
-0.040193 44.910748 -5.143946 -15.166029 -0.075404 -0.819405 0.000000 0.000000 0.000000 4.726651 0.350367 1.835669 6.349169 0.757096 0.566858 21.806999 -0.418329 -1.133369 -8.315796 8.454094 5.580751 -7.251047 -63.701397 -19.753891 -26.242115 -9.868510 27.499241 7.411437 -5.652911 -3.951359 9.017138 4.011952 4.600759 -14.000230 64.503853 -24.096964 18.057131 12.593982 35.676426 -4.122308 -2.901184 -3.514862 -5.838091 16.426931 7.396744 50.338680 4.315317 10.916941 -22.301800 4.241013 -21.259962 -8.561989 -18.477903 -8.942579 52.297508 -0.233938 5.576056 -25.977755 -2.427141 10.576468 
-0.035790 44.911121 -5.135954 -15.126966 -0.075418 -0.838988 0.000000 0.000000 0.000000 4.658300 0.369868 1.885669 6.445141 0.697230 0.588500 21.093851 -0.228828 -1.222603 -8.301455 8.413632 5.521331 -7.405961 -63.711750 -19.706745 -26.273590 -9.781114 27.589003 7.335121 -5.540536 -3.937969 9.034120 3.974184 4.547661 -14.232057 64.560081 -24.456707 17.689529 12.523923 36.347622 -4.059298 -2.515523 -3.518732 -5.857056 16.406740 7.424377 50.340240 4.322604 10.969016 -22.318205 4.237629 -21.274210 -8.603120 -18.454615 -8.870605 52.290989 -0.282919 5.456298 -25.952936 -2.442349 10.646161 
-0.026857 44.912258 -5.121181 -15.136760 -0.131975 -0.872503 0.000000 0.000000 0.000000 4.658346 0.447735 1.862729 6.500621 0.674810 0.565208 20.546938 -0.181530 -1.288429 -8.242816 8.387469 5.522789 -7.139472 -63.691288 -19.792316 -26.314085 -9.780121 27.665646 7.354002 -5.382683 -3.928800 9.082976 3.918049 4.539403 -14.247687 64.551422 -24.535467 17.780371 12.494533 35.940872 -4.010242 -2.825530 -3.518027 -5.828887 16.458752 7.427780 50.359089 4.315217 10.936347 -22.361055 4.235173 -21.254776 -8.562009 -18.380388 -8.834918 52.252312 -0.282983 5.444955 -25.960911 -2.464533 10.677301 
-0.009991 44.904709 -5.108005 -15.107462 -0.131994 -0.892101 0.000000 0.000000 0.000000 4.629067 0.476955 1.855104 6.422526 0.701966 0.595404 20.234455 -0.210432 -1.244521 -8.179065 8.407237 5.483710 -6.713291 -63.788170 -20.001862 -26.174881 -9.893912 27.493700 7.444630 -5.415803 -3.933450 9.138489 4.015950 4.502962 -14.608666 64.449951 -24.580341 17.929972 12.578062 35.407951 -4.099782 -2.948673 -3.514265 -5.857065 16.436146 7.444585 50.389538 4.333354 10.992424 -22.369829 4.267973 -21.280182 -8.603297 -18.416094 -8.821687 52.270714 -0.292723 5.470179 -25.968439 -2.470415 10.707461 
0.001584 44.897533 -5.097661 -15.097692 -0.122571 -0.884902 0.000000 0.000000 0.000000 4.619282 0.447760 1.891721 6.299943 0.789661 0.489694 20.088165 -0.392374 -1.310253 -8.304339 8.555388 5.495770 -6.732872 -63.749802 -20.070959 -26.183212 -9.909795 27.106218 7.619995 -5.394328 -3.952478 9.073977 4.077198 4.491134 -15.043169 64.518242 -24.829935 17.738272 12.636702 35.087650 -4.429646 -2.969801 -3.513350 -5.868383 16.412912 7.424160 50.440784 4.342897 11.065610 -22.412033 4.263113 -21.318571 -8.601218 -18.438900 -8.820867 52.307335 -0.282820 5.543989 -26.037497 -2.449174 10.688887 
0.011276 44.895771 -5.088411 -15.078167 -0.132012 -0.901935 0.000000 0.000000 0.000000 4.589996 0.467247 1.873527 6.300327 0.814317 0.443397 19.775726 -0.440706 -1.298049 -8.318640 8.556710 5.474972 -6.716239 -63.691418 -20.110088 -26.231853 -9.884960 27.267138 7.602405 -5.424864 -3.951453 9.132034 4.126846 4.460076 -15.292355 64.575050 -25.180481 17.512827 12.690076 35.188286 -4.301332 -2.844141 -3.514959 -5.888484 16.444366 7.452899 50.460342 4.323386 11.027464 -22.445339 4.263295 -21.296787 -8.632130 -18.435041 -8.818604 52.308498 -0.319828 5.488116 -26.025232 -2.462582 10.725570 
0.021973 44.893501 -5.073148 -15.029323 -0.103747 -0.880347 0.000000 0.000000 0.000000 4.511857 0.447827 1.881116 6.261624 0.811651 0.443033 19.648653 -0.354635 -1.319283 -8.300871 8.578378 5.400223 -6.715874 -63.798508 -20.070127 -26.095125 -9.892510 27.521593 7.537178 -5.331339 -3.937681 9.116358 4.114447 4.394893 -15.053802 64.551018 -25.133608 17.530905 12.657104 35.240395 -4.260643 -2.870892 -3.512771 -5.917480 16.393734 7.430002 50.491123 4.286367 10.991047 -22.504889 4.283422 -21.252424 -8.651011 -18.491343 -8.816035 52.300270 -0.302573 5.457169 -26.041035 -2.474826 10.774783 
0.044625 44.897533 -5.057128 -15.117213 -0.103704 -0.889954 0.000000 0.000000 0.000000 4.550926 0.457537 1.872432 6.339955 0.830247 0.435582 19.492367 -0.326053 -1.312777 -8.260196 8.614468 5.445311 -6.725534 -63.964413 -20.049408 -25.897848 -9.915201 27.519579 7.429616 -5.338504 -3.932014 9.074204 4.136986 4.432755 -15.026439 64.677795 -25.134325 17.295177 12.602307 35.306770 -4.171444 -2.894540 -3.517606 -5.800443 16.345119 7.418541 50.483212 4.315511 11.092026 -22.518375 4.284158 -21.286976 -8.514569 -18.521845 -8.839074 52.249119 -0.339319 5.495842 -26.029726 -2.478688 10.794734 
